<svg width="17" height="17" viewBox="0 0 17 17" fill="none" xmlns="http://www.w3.org/2000/svg">
<g clip-path="url(#clip0_31385_826)">
<path d="M13.4583 2.01175H12.75V1.36134C12.75 1.18885 12.6754 1.02341 12.5425 0.901437C12.4097 0.779462 12.2295 0.710938 12.0417 0.710938C11.8538 0.710938 11.6736 0.779462 11.5408 0.901437C11.408 1.02341 11.3333 1.18885 11.3333 1.36134V2.01175H5.66667V1.36134C5.66667 1.18885 5.59204 1.02341 5.4592 0.901437C5.32636 0.779462 5.14619 0.710938 4.95833 0.710938C4.77047 0.710938 4.5903 0.779462 4.45747 0.901437C4.32463 1.02341 4.25 1.18885 4.25 1.36134V2.01175H3.54167C2.6027 2.01278 1.70252 2.35574 1.03857 2.96539C0.374625 3.57504 0.00112473 4.40161 0 5.26378L0 13.0687C0.00112473 13.9308 0.374625 14.7574 1.03857 15.3671C1.70252 15.9767 2.6027 16.3197 3.54167 16.3207H13.4583C14.3973 16.3197 15.2975 15.9767 15.9614 15.3671C16.6254 14.7574 16.9989 13.9308 17 13.0687V5.26378C16.9989 4.40161 16.6254 3.57504 15.9614 2.96539C15.2975 2.35574 14.3973 2.01278 13.4583 2.01175ZM1.41667 5.26378C1.41667 4.74629 1.64055 4.24999 2.03906 3.88406C2.43758 3.51814 2.97808 3.31256 3.54167 3.31256H13.4583C14.0219 3.31256 14.5624 3.51814 14.9609 3.88406C15.3595 4.24999 15.5833 4.74629 15.5833 5.26378V5.91419H1.41667V5.26378ZM13.4583 15.0199H3.54167C2.97808 15.0199 2.43758 14.8143 2.03906 14.4484C1.64055 14.0825 1.41667 13.5862 1.41667 13.0687V7.215H15.5833V13.0687C15.5833 13.5862 15.3595 14.0825 14.9609 14.4484C14.5624 14.8143 14.0219 15.0199 13.4583 15.0199Z" fill="black"/>
<path d="M8.5 11.4429C9.0868 11.4429 9.5625 11.0061 9.5625 10.4673C9.5625 9.92849 9.0868 9.4917 8.5 9.4917C7.9132 9.4917 7.4375 9.92849 7.4375 10.4673C7.4375 11.0061 7.9132 11.4429 8.5 11.4429Z" fill="black"/>
<path d="M4.96094 11.4429C5.54774 11.4429 6.02344 11.0061 6.02344 10.4673C6.02344 9.92849 5.54774 9.4917 4.96094 9.4917C4.37413 9.4917 3.89844 9.92849 3.89844 10.4673C3.89844 11.0061 4.37413 11.4429 4.96094 11.4429Z" fill="black"/>
<path d="M12.0391 11.4429C12.6259 11.4429 13.1016 11.0061 13.1016 10.4673C13.1016 9.92849 12.6259 9.4917 12.0391 9.4917C11.4523 9.4917 10.9766 9.92849 10.9766 10.4673C10.9766 11.0061 11.4523 11.4429 12.0391 11.4429Z" fill="black"/>
</g>
<defs>
<clipPath id="clip0_31385_826">
<rect width="17" height="17" rx="5" fill="white"/>
</clipPath>
</defs>
</svg>
