<svg width="470" height="208" viewBox="0 0 470 208" fill="none" xmlns="http://www.w3.org/2000/svg">
<path d="M235.936 160.5C280.117 160.5 315.934 124.683 315.934 80.5C315.934 36.3172 280.117 0.5 235.936 0.5C191.754 0.5 155.938 36.3172 155.938 80.5C155.938 124.683 191.754 160.5 235.936 160.5Z" fill="#F1F3FA" stroke="#D5DAE5" stroke-miterlimit="10"/>
<path d="M315.763 80.1588C315.763 103.938 306.421 125.169 289.946 139.777H156.956C155.257 139.777 153.898 138.418 153.898 136.719V26.3159C153.898 24.6174 155.257 23.2585 156.956 23.2585H291.475C306.421 37.3562 315.763 57.7384 315.763 80.1588Z" fill="#F1F3FA" stroke="#D5DAE5" stroke-miterlimit="10"/>
<path d="M289.777 139.608H289.438C291.646 137.57 293.344 135.531 295.212 133.323C293.344 135.701 291.985 137.739 289.777 139.608Z" fill="#F1F3FA"/>
<path d="M211.818 91.7089H158.826C157.976 91.7089 157.297 91.0295 157.297 90.1803V51.9637C157.297 51.1145 157.976 50.4351 158.826 50.4351H211.818C212.667 50.4351 213.347 51.1145 213.347 51.9637V90.0104C213.347 90.8597 212.667 91.7089 211.818 91.7089Z" fill="white"/>
<path d="M308.631 47.3768H158.826C157.976 47.3768 157.297 46.6974 157.297 45.8481V27.8438C157.297 26.9946 157.976 26.3152 158.826 26.3152H294.704C296.742 28.5233 298.61 30.9012 300.478 33.2791C302.347 35.8269 304.215 38.7143 305.744 41.432C306.763 43.4702 307.782 45.3385 308.631 47.3768Z" fill="white"/>
<path d="M305.741 41.605H282.302C281.793 41.605 281.453 41.2653 281.453 40.7558V34.3014C281.453 33.7919 281.793 33.4521 282.302 33.4521H300.306C302.344 35.9999 304.043 38.7175 305.741 41.605Z" fill="#AAB2C5"/>
<path d="M301.671 38.2073H287.404C286.894 38.2073 286.555 37.8676 286.555 37.358C286.555 36.8485 286.894 36.5088 287.404 36.5088H301.671C302.181 36.5088 302.52 36.8485 302.52 37.358C302.52 37.8676 302.181 38.2073 301.671 38.2073Z" fill="white"/>
<path d="M270.584 91.7089H217.591C216.742 91.7089 216.062 91.0295 216.062 90.1803V51.9637C216.062 51.1145 216.742 50.4351 217.591 50.4351H270.584C271.433 50.4351 272.112 51.1145 272.112 51.9637V90.0104C272.282 90.8597 271.603 91.7089 270.584 91.7089Z" fill="white"/>
<path d="M314.744 67.7599C313.725 61.6452 312.197 55.8703 309.989 50.4351H276.529C275.679 50.4351 275 51.1145 275 52.1336V90.1803C275 91.0295 275.679 91.7089 276.529 91.7089H314.914C315.424 87.9722 315.763 84.0656 315.763 80.3289C315.763 76.9319 315.594 73.5348 315.084 70.1378L314.744 67.7599Z" fill="white"/>
<path d="M211.818 135.873H158.826C157.976 135.873 157.297 135.194 157.297 134.345V96.298C157.297 95.4487 157.976 94.7693 158.826 94.7693H211.818C212.667 94.7693 213.347 95.4487 213.347 96.298V134.345C213.347 135.194 212.667 135.873 211.818 135.873Z" fill="white"/>
<path d="M270.584 135.873H217.591C216.742 135.873 216.062 135.194 216.062 134.345V96.298C216.062 95.4487 216.742 94.7693 217.591 94.7693H270.584C271.433 94.7693 272.112 95.4487 272.112 96.298V134.345C272.282 135.194 271.603 135.873 270.584 135.873Z" fill="white"/>
<path d="M314.408 94.7693C314.069 96.8075 313.559 98.6759 313.05 100.544C312.88 101.224 312.71 101.733 312.54 102.413C312.031 104.281 311.351 106.149 310.672 108.018C310.162 109.377 309.483 110.905 308.973 112.264C308.464 113.283 307.954 114.302 307.445 115.321C307.275 115.831 306.935 116.34 306.595 116.85C305.576 118.718 304.557 120.587 303.368 122.455C303.029 122.965 302.689 123.644 302.179 124.154C300.99 125.852 299.801 127.551 298.613 129.249C298.103 129.929 297.593 130.438 297.084 131.117C295.725 132.816 294.197 134.515 292.668 136.043H276.193C275.343 136.043 274.664 135.364 274.664 134.515V96.298C274.664 95.4487 275.343 94.7693 276.193 94.7693H314.408Z" fill="white"/>
<path d="M192.11 117.361C192.11 117.531 192.11 117.701 191.94 117.87C191.77 118.21 191.77 118.55 191.77 118.89C191.6 119.059 191.6 119.229 191.6 119.399C191.43 119.739 191.43 120.079 191.26 120.248V120.418C191.091 120.588 191.091 120.758 191.091 120.758C190.921 120.928 190.921 121.098 190.751 121.098L193.808 123.815C193.978 123.645 193.978 123.476 194.148 123.306C194.488 122.796 194.827 122.287 194.997 121.777C195.167 121.607 195.167 121.437 195.167 121.268C195.337 120.758 195.507 120.248 195.846 119.739C195.846 119.569 196.016 119.399 196.016 119.399C196.186 119.059 196.186 118.72 196.186 118.55C196.186 118.38 196.356 118.21 196.356 118.21C196.356 118.04 196.356 117.87 196.526 117.87V117.701C196.526 117.531 196.526 117.361 196.526 117.361H192.11ZM183.447 125.004C178.692 125.004 174.615 121.098 174.615 116.342C174.615 111.756 178.012 108.189 182.259 107.679V103.603C175.804 104.113 170.539 109.718 170.539 116.512C170.539 123.645 176.314 129.42 183.447 129.42C187.014 129.42 190.241 128.062 192.449 125.684L189.392 122.796C187.864 124.325 185.655 125.004 183.447 125.004ZM184.467 103.433V107.51C188.543 108.019 191.6 111.076 192.11 114.983H196.356C195.846 108.868 190.751 103.943 184.467 103.433Z" fill="#F1F3FA"/>
<path d="M196.36 115.152H192.284C191.774 111.076 188.547 108.018 184.641 107.678V103.602C190.755 103.942 195.851 108.867 196.36 115.152Z" fill="#AAB2C5"/>
<path d="M196.363 117.36C196.363 117.529 196.363 117.699 196.363 117.699V117.869C196.363 118.039 196.363 118.209 196.193 118.209C196.193 118.379 196.193 118.549 196.023 118.549C195.853 118.888 195.853 119.228 195.853 119.398C195.853 119.568 195.683 119.738 195.683 119.738C195.514 120.247 195.344 120.757 195.004 121.266C194.834 121.436 194.834 121.606 194.834 121.776C194.664 122.285 194.325 122.795 193.985 123.304C193.815 123.474 193.815 123.644 193.645 123.814L190.758 121.096C190.928 120.926 190.928 120.757 191.098 120.757C191.267 120.587 191.267 120.417 191.267 120.417V120.247C191.437 119.907 191.607 119.568 191.607 119.398C191.777 119.228 191.777 119.058 191.777 118.888C191.947 118.549 191.947 118.209 191.947 117.869C191.947 117.699 192.117 117.529 192.117 117.36H196.363Z" fill="#D5DAE5"/>
<path d="M315.08 69.9687C315.08 69.2893 314.91 68.6098 314.741 67.7606L305.739 76.7627C305.399 76.5929 304.889 76.423 304.55 76.423C304.21 76.423 303.701 76.5929 303.361 76.7627L295.208 68.6098C295.378 68.2701 295.378 68.1003 295.378 67.5907C295.378 66.0621 294.189 65.043 292.83 65.043C291.472 65.043 290.283 66.2319 290.283 67.5907C290.283 67.9304 290.283 68.2701 290.452 68.6098L283.489 75.2341C283.149 75.0642 282.809 75.0642 282.47 75.0642C280.941 75.0642 279.922 76.2532 279.922 77.612C279.922 78.9708 281.111 80.1597 282.47 80.1597C283.828 80.1597 285.017 78.9708 285.017 77.612C285.017 77.2723 284.847 76.9326 284.678 76.5929L291.302 69.7988C291.811 69.9687 291.981 70.1385 292.321 70.1385C292.66 70.1385 293.17 69.9687 293.34 69.7988L301.493 77.9517C301.323 78.2914 301.323 78.4612 301.323 78.8009C301.323 80.3296 302.512 81.3487 303.87 81.3487C305.399 81.3487 306.418 80.1597 306.418 78.8009C306.418 78.4612 306.418 78.2914 306.248 77.9517L315.08 69.9687ZM282.639 79.1406C281.96 79.1406 281.451 78.6311 281.451 77.9517C281.451 77.2723 281.96 76.7627 282.639 76.7627C283.319 76.7627 283.828 77.2723 283.828 77.9517C283.828 78.4612 283.319 79.1406 282.639 79.1406ZM292.83 68.7797C292.151 68.7797 291.641 68.2701 291.641 67.5907C291.641 66.9113 292.151 66.4018 292.83 66.4018C293.51 66.4018 294.019 66.9113 294.019 67.5907C294.019 68.2701 293.68 68.7797 292.83 68.7797ZM304.72 80.3296C304.04 80.3296 303.531 79.82 303.531 79.1406C303.531 78.4612 304.04 77.9517 304.72 77.9517C305.399 77.9517 305.909 78.4612 305.909 79.1406C306.078 79.82 305.569 80.3296 304.72 80.3296Z" fill="#D5DAE5"/>
<path d="M226.247 78.1207H223.869C223.699 78.1207 223.359 77.781 223.359 77.6111V64.7024C223.359 64.3627 223.529 64.1929 223.869 64.1929H226.247C226.417 64.1929 226.756 64.5326 226.756 64.7024V77.6111C226.586 77.781 226.417 78.1207 226.247 78.1207Z" fill="#AAB2C5"/>
<path d="M227.612 78.123H224.894C224.725 78.123 224.555 77.9531 224.555 77.7833V71.8385C224.555 71.4988 224.725 71.4988 224.894 71.4988H227.612C227.782 71.4988 227.952 71.6686 227.952 71.8385V77.7833C227.952 77.9531 227.782 78.123 227.612 78.123Z" fill="#D5DAE5"/>
<path d="M232.372 78.1204H229.994C229.824 78.1204 229.484 77.7807 229.484 77.6108V68.6087C229.484 68.269 229.654 68.0991 229.994 68.0991H232.372C232.542 68.0991 232.881 68.4388 232.881 68.6087V77.6108C232.881 77.7807 232.542 78.1204 232.372 78.1204Z" fill="#AAB2C5"/>
<path d="M238.481 78.1241H236.103C235.933 78.1241 235.594 77.7844 235.594 77.6146V71.8396C235.594 71.4999 235.764 71.3301 236.103 71.3301H238.481C238.651 71.3301 238.991 71.6698 238.991 71.8396V77.4447C238.991 77.7844 238.651 78.1241 238.481 78.1241Z" fill="#AAB2C5"/>
<path d="M244.598 78.124H242.22C242.051 78.124 241.711 77.7843 241.711 77.6145V66.9138C241.711 66.5741 241.881 66.4043 242.22 66.4043H244.598C244.768 66.4043 245.108 66.744 245.108 66.9138V77.6145C245.108 77.7843 244.938 78.124 244.598 78.124Z" fill="#AAB2C5"/>
<path d="M250.88 78.1221H248.502C248.332 78.1221 247.992 77.7824 247.992 77.6126V71.1582C247.992 70.8185 248.162 70.6487 248.502 70.6487H250.88C251.049 70.6487 251.389 70.9884 251.389 71.1582V77.6126C251.389 77.7824 251.219 78.1221 250.88 78.1221Z" fill="#AAB2C5"/>
<path d="M256.989 78.1204H254.611C254.441 78.1204 254.102 77.7807 254.102 77.6108V68.6087C254.102 68.269 254.271 68.0991 254.611 68.0991H256.989C257.159 68.0991 257.499 68.4388 257.499 68.6087V77.6108C257.499 77.7807 257.329 78.1204 256.989 78.1204Z" fill="#AAB2C5"/>
<path d="M263.27 78.1241H260.892C260.723 78.1241 260.383 77.7844 260.383 77.6146V71.8396C260.383 71.4999 260.553 71.3301 260.892 71.3301H263.27C263.44 71.3301 263.78 71.6698 263.78 71.8396V77.4447C263.61 77.7844 263.44 78.1241 263.27 78.1241Z" fill="#AAB2C5"/>
<path d="M233.721 78.121H230.834C230.664 78.121 230.664 77.9512 230.664 77.7813V74.2145C230.664 74.0446 230.834 73.8748 230.834 73.8748H233.721C233.891 73.8748 233.891 74.0446 233.891 74.2145V77.7813C234.061 77.9512 233.891 78.121 233.721 78.121Z" fill="#D5DAE5"/>
<path d="M240.003 78.1208H237.115C236.945 78.1208 236.945 77.951 236.945 77.7811V76.0826C236.945 75.9128 237.115 75.7429 237.115 75.7429H240.003C240.172 75.7429 240.172 75.9128 240.172 76.0826V77.7811C240.172 77.951 240.172 78.1208 240.003 78.1208Z" fill="#D5DAE5"/>
<path d="M246.12 78.1205H243.232C243.062 78.1205 243.062 77.9506 243.062 77.7808V75.233C243.062 75.0632 243.232 74.8933 243.232 74.8933H246.12C246.29 74.8933 246.29 75.0632 246.29 75.233V77.7808C246.459 77.9506 246.459 78.1205 246.12 78.1205Z" fill="#D5DAE5"/>
<path d="M252.411 78.1216H249.693C249.523 78.1216 249.523 77.9517 249.523 77.7819V73.1959C249.523 73.0261 249.693 72.8562 249.693 72.8562H252.411C252.581 72.8562 252.581 73.0261 252.581 73.1959V77.7819C252.751 77.9517 252.581 78.1216 252.411 78.1216Z" fill="#D5DAE5"/>
<path d="M258.86 78.1196H255.803C255.633 78.1196 255.633 78.1196 255.633 77.9498V77.1005C255.633 76.9307 255.633 76.9307 255.803 76.9307H258.86C259.03 76.9307 259.03 76.9307 259.03 77.1005V77.7799C259.03 77.9498 259.03 78.1196 258.86 78.1196Z" fill="#D5DAE5"/>
<path d="M264.977 78.122H261.92C261.92 78.122 261.75 78.122 261.75 77.9522V77.6125C261.75 77.6125 261.75 77.4426 261.92 77.4426H264.977C264.977 77.4426 265.147 77.4426 265.147 77.6125L264.977 78.122C265.147 77.9522 264.977 78.122 264.977 78.122Z" fill="#D5DAE5"/>
<path d="M267.696 100.202H220.648V106.487H267.696V100.202Z" fill="#F1F3FA"/>
<path d="M247.987 102.239H235.078V104.107H247.987V102.239Z" fill="#D5DAE5"/>
<path d="M264.297 102.239H259.711V104.107H264.297V102.239Z" fill="#D5DAE5"/>
<path d="M267.696 112.091H220.648V118.375H267.696V112.091Z" fill="#F1F3FA"/>
<path d="M244.08 114.303H235.078V116.171H244.08V114.303Z" fill="#D5DAE5"/>
<path d="M264.295 114.303H256.312V116.171H264.295V114.303Z" fill="#D5DAE5"/>
<path d="M267.696 124.153H220.648V130.437H267.696V124.153Z" fill="#F1F3FA"/>
<path d="M250.025 126.36H235.078V128.229H250.025V126.36Z" fill="#D5DAE5"/>
<path d="M264.298 126.36H261.75V128.229H264.298V126.36Z" fill="#D5DAE5"/>
<path d="M169.866 34.6379H162.732C162.223 34.6379 161.883 34.1283 161.883 33.7886V32.9393C161.883 32.4298 162.392 32.0901 162.732 32.0901H169.866C170.375 32.0901 170.715 32.5996 170.715 32.9393V33.7886C170.715 34.1283 170.375 34.6379 169.866 34.6379Z" fill="#D5DAE5"/>
<path d="M218.948 34.6379H176.826C176.316 34.6379 175.977 34.1283 175.977 33.7886V32.9393C175.977 32.4298 176.486 32.0901 176.826 32.0901H218.948C219.458 32.0901 219.797 32.5996 219.797 32.9393V33.7886C219.797 34.1283 219.458 34.6379 218.948 34.6379Z" fill="#F1F3FA"/>
<path d="M169.866 41.6066H162.732C162.223 41.6066 161.883 41.0971 161.883 40.7574V39.9081C161.883 39.3985 162.392 39.0588 162.732 39.0588H169.866C170.375 39.0588 170.715 39.5684 170.715 39.9081V40.7574C170.715 41.2669 170.375 41.6066 169.866 41.6066Z" fill="#D5DAE5"/>
<path d="M199.416 40.7574C199.416 41.2669 198.906 41.6066 198.566 41.6066H176.826C176.316 41.6066 175.977 41.0971 175.977 40.7574V39.9081C175.977 39.3985 176.486 39.0588 176.826 39.0588H198.566C199.076 39.0588 199.416 39.5684 199.416 39.9081V40.7574Z" fill="#F1F3FA"/>
<path d="M207.402 86.613H161.883V58.4177C164.261 58.5876 166.639 58.7574 168.847 59.4368C169.866 59.7765 170.545 60.1162 171.224 60.7956C171.564 61.1353 171.564 61.3052 171.564 61.4751C171.904 62.3243 172.583 62.8339 173.772 63.0037L174.791 63.1736C176.829 63.3434 178.358 64.5324 178.528 65.8912L178.868 68.2691C181.076 68.7787 181.245 68.7787 183.284 69.2882C183.623 69.4581 183.623 69.2882 183.793 69.1184C183.963 68.9485 184.133 68.9485 184.303 68.9485C184.642 68.9485 184.642 68.9485 184.982 68.7787C185.322 68.6088 185.661 68.6088 185.831 68.9485C186.681 70.1375 188.379 70.8169 189.398 71.836C190.587 73.0249 192.625 72.8551 193.984 72.8551C194.324 72.8551 194.833 73.0249 195.173 73.1948C196.871 74.3838 199.589 78.2903 201.797 78.2903C202.646 78.2903 203.326 78.63 203.835 78.9697C205.703 81.5175 206.892 83.8954 207.402 86.613Z" fill="#F1F3FA"/>
<path d="M206.213 86.9535C205.703 84.4057 204.515 82.3675 202.646 80.1594C202.476 79.9896 201.967 79.8197 201.457 79.8197C199.419 79.8197 197.721 77.9514 196.022 76.2528C195.343 75.5734 194.663 74.894 194.154 74.5543C193.984 74.3845 193.644 74.3845 193.644 74.3845C193.305 74.3845 193.135 74.3845 192.795 74.3845C191.436 74.3845 189.568 74.2146 188.209 73.0257C187.869 72.5161 187.36 72.1764 186.681 71.8367C186.001 71.3272 185.322 70.9875 184.812 70.308C184.642 70.308 184.303 70.308 184.133 70.308C183.963 70.4779 183.284 70.8176 182.434 70.4779L181.415 70.1382C180.396 69.9683 179.887 69.7985 178.188 69.4588H177.679L177.339 66.2316C177.339 65.3824 176.15 64.703 174.791 64.5331L173.772 64.3632C172.244 64.1934 170.885 63.3441 170.545 61.9853V61.8155C170.035 61.3059 169.526 60.9662 168.847 60.7964C166.469 59.9471 164.091 59.7773 161.883 59.7773L162.053 57.2295C164.431 57.3993 166.978 57.5692 169.356 58.4184C170.545 58.7581 171.564 59.4376 172.244 60.2868C172.413 60.4567 172.753 60.9662 172.923 61.6456C173.093 61.9853 173.432 62.1552 173.942 62.1552L174.961 62.325C177.679 62.4949 179.547 64.1934 179.887 66.2316L180.056 67.5904C181.076 67.7603 181.585 67.9301 182.434 68.1L183.453 68.2698C183.793 68.1 184.133 67.9301 184.473 67.9301C184.642 67.9301 184.642 67.9301 184.812 67.9301C185.661 67.5904 186.681 67.9301 187.19 68.6095C187.53 68.9492 188.209 69.4588 188.719 69.7985C189.398 70.308 190.077 70.6478 190.587 71.3272C191.097 71.8367 192.286 71.8367 193.474 72.0066C193.814 72.0066 193.984 72.0066 194.324 72.0066C195.003 72.0066 195.513 72.3463 196.022 72.5161L196.192 72.686C196.871 73.1955 197.721 73.8749 198.4 74.7242C199.419 75.9131 201.118 77.4418 201.967 77.4418C202.986 77.4418 204.005 77.7815 204.854 78.4609C207.232 81.0087 208.591 83.5565 209.1 86.6138L206.213 86.9535Z" fill="#D5DAE5"/>
<path d="M205.532 69.4587H185.49C184.64 69.4587 183.961 68.7793 183.961 67.93V60.7962C183.961 59.947 184.64 59.2676 185.49 59.2676H205.532C206.381 59.2676 207.06 59.947 207.06 60.7962V67.93C207.06 68.7793 206.381 69.4587 205.532 69.4587Z" fill="#AAB2C5"/>
<path d="M202.982 62.1543H188.205C187.865 62.1543 187.695 62.494 187.695 62.6638C187.695 63.0036 188.035 63.1734 188.205 63.1734H202.982C203.321 63.1734 203.491 62.8337 203.491 62.6638C203.491 62.494 203.151 62.1543 202.982 62.1543Z" fill="white"/>
<path d="M196.016 65.5549H188.033C187.693 65.5549 187.523 65.8946 187.523 66.0645C187.523 66.2343 187.863 66.574 188.033 66.574H196.016C196.356 66.574 196.525 66.2343 196.525 66.0645C196.525 65.8946 196.186 65.5549 196.016 65.5549Z" fill="white"/>
<path d="M294.699 115.152H281.281V109.547H294.699V115.152ZM281.451 116.85H294.868V122.456H281.451V116.85ZM282.47 102.413H294.868V108.188H281.451V103.602C281.451 102.753 281.96 102.413 282.47 102.413ZM281.451 128.061V123.984H294.868V129.08H282.47C281.96 129.25 281.451 128.74 281.451 128.061ZM312.533 102.413C312.702 101.734 312.872 101.224 313.042 100.545H282.47C280.941 100.545 279.922 101.903 279.922 103.432V128.061C279.922 129.589 281.111 130.948 282.47 130.948H297.416C297.926 130.269 298.435 129.759 298.945 129.08H296.567V123.984H302.512C302.851 123.475 303.191 122.795 303.701 122.286H296.567V116.681H306.758C307.097 116.171 307.267 115.661 307.607 115.152H296.567V109.547H309.136V111.925C309.815 110.566 310.325 109.037 310.834 107.678H310.664V102.413H312.533ZM308.966 108.018H296.567V102.413H309.136V108.018H308.966Z" fill="#F1F3FA"/>
<path d="M287.232 19.0137C304.896 33.6209 316.106 55.7016 316.106 80.4999C316.106 105.638 304.556 128.058 286.383 142.666" stroke="#D5DAE5" stroke-miterlimit="10"/>
<path d="M114.274 201.5V186.1H116.628L126.286 197.958H125.12V186.1H127.958V201.5H125.604L115.946 189.642H117.112V201.5H114.274ZM139.059 201.5V199.124L138.905 198.618V194.46C138.905 193.653 138.663 193.03 138.179 192.59C137.695 192.135 136.961 191.908 135.979 191.908C135.319 191.908 134.666 192.011 134.021 192.216C133.39 192.421 132.855 192.707 132.415 193.074L131.337 191.072C131.967 190.588 132.715 190.229 133.581 189.994C134.461 189.745 135.37 189.62 136.309 189.62C138.01 189.62 139.323 190.031 140.247 190.852C141.185 191.659 141.655 192.913 141.655 194.614V201.5H139.059ZM135.363 201.654C134.483 201.654 133.713 201.507 133.053 201.214C132.393 200.906 131.879 200.488 131.513 199.96C131.161 199.417 130.985 198.809 130.985 198.134C130.985 197.474 131.139 196.88 131.447 196.352C131.769 195.824 132.29 195.406 133.009 195.098C133.727 194.79 134.681 194.636 135.869 194.636H139.279V196.462H136.067C135.128 196.462 134.497 196.616 134.175 196.924C133.852 197.217 133.691 197.584 133.691 198.024C133.691 198.523 133.889 198.919 134.285 199.212C134.681 199.505 135.231 199.652 135.935 199.652C136.609 199.652 137.211 199.498 137.739 199.19C138.281 198.882 138.67 198.427 138.905 197.826L139.367 199.476C139.103 200.165 138.626 200.701 137.937 201.082C137.262 201.463 136.404 201.654 135.363 201.654ZM150.177 201.654C149.048 201.654 148.029 201.405 147.119 200.906C146.225 200.393 145.521 199.689 145.007 198.794C144.494 197.899 144.237 196.843 144.237 195.626C144.237 194.409 144.494 193.353 145.007 192.458C145.521 191.563 146.225 190.867 147.119 190.368C148.029 189.869 149.048 189.62 150.177 189.62C151.16 189.62 152.04 189.84 152.817 190.28C153.595 190.705 154.211 191.358 154.665 192.238C155.12 193.118 155.347 194.247 155.347 195.626C155.347 196.99 155.127 198.119 154.687 199.014C154.247 199.894 153.639 200.554 152.861 200.994C152.084 201.434 151.189 201.654 150.177 201.654ZM150.507 199.3C151.167 199.3 151.754 199.153 152.267 198.86C152.795 198.567 153.213 198.141 153.521 197.584C153.844 197.027 154.005 196.374 154.005 195.626C154.005 194.863 153.844 194.211 153.521 193.668C153.213 193.111 152.795 192.685 152.267 192.392C151.754 192.099 151.167 191.952 150.507 191.952C149.847 191.952 149.253 192.099 148.725 192.392C148.212 192.685 147.794 193.111 147.471 193.668C147.163 194.211 147.009 194.863 147.009 195.626C147.009 196.374 147.163 197.027 147.471 197.584C147.794 198.141 148.212 198.567 148.725 198.86C149.253 199.153 149.847 199.3 150.507 199.3ZM154.071 201.5V198.728L154.181 195.604L153.961 192.48V185.176H156.689V201.5H154.071ZM167.547 201.5V199.124L167.393 198.618V194.46C167.393 193.653 167.151 193.03 166.667 192.59C166.183 192.135 165.45 191.908 164.467 191.908C163.807 191.908 163.154 192.011 162.509 192.216C161.878 192.421 161.343 192.707 160.903 193.074L159.825 191.072C160.456 190.588 161.204 190.229 162.069 189.994C162.949 189.745 163.858 189.62 164.797 189.62C166.498 189.62 167.811 190.031 168.735 190.852C169.674 191.659 170.143 192.913 170.143 194.614V201.5H167.547ZM163.851 201.654C162.971 201.654 162.201 201.507 161.541 201.214C160.881 200.906 160.368 200.488 160.001 199.96C159.649 199.417 159.473 198.809 159.473 198.134C159.473 197.474 159.627 196.88 159.935 196.352C160.258 195.824 160.778 195.406 161.497 195.098C162.216 194.79 163.169 194.636 164.357 194.636H167.767V196.462H164.555C163.616 196.462 162.986 196.616 162.663 196.924C162.34 197.217 162.179 197.584 162.179 198.024C162.179 198.523 162.377 198.919 162.773 199.212C163.169 199.505 163.719 199.652 164.423 199.652C165.098 199.652 165.699 199.498 166.227 199.19C166.77 198.882 167.158 198.427 167.393 197.826L167.855 199.476C167.591 200.165 167.114 200.701 166.425 201.082C165.75 201.463 164.892 201.654 163.851 201.654ZM186.264 201.654C185.311 201.654 184.438 201.434 183.646 200.994C182.869 200.554 182.246 199.894 181.776 199.014C181.322 198.119 181.094 196.99 181.094 195.626C181.094 194.247 181.314 193.118 181.754 192.238C182.209 191.358 182.825 190.705 183.602 190.28C184.38 189.84 185.267 189.62 186.264 189.62C187.423 189.62 188.442 189.869 189.322 190.368C190.217 190.867 190.921 191.563 191.434 192.458C191.962 193.353 192.226 194.409 192.226 195.626C192.226 196.843 191.962 197.907 191.434 198.816C190.921 199.711 190.217 200.407 189.322 200.906C188.442 201.405 187.423 201.654 186.264 201.654ZM179.752 205.768V189.752H182.37V192.524L182.282 195.648L182.502 198.772V205.768H179.752ZM185.956 199.3C186.616 199.3 187.203 199.153 187.716 198.86C188.244 198.567 188.662 198.141 188.97 197.584C189.278 197.027 189.432 196.374 189.432 195.626C189.432 194.863 189.278 194.211 188.97 193.668C188.662 193.111 188.244 192.685 187.716 192.392C187.203 192.099 186.616 191.952 185.956 191.952C185.296 191.952 184.702 192.099 184.174 192.392C183.646 192.685 183.228 193.111 182.92 193.668C182.612 194.211 182.458 194.863 182.458 195.626C182.458 196.374 182.612 197.027 182.92 197.584C183.228 198.141 183.646 198.567 184.174 198.86C184.702 199.153 185.296 199.3 185.956 199.3ZM200.114 201.654C198.912 201.654 197.841 201.397 196.902 200.884C195.964 200.356 195.223 199.637 194.68 198.728C194.138 197.819 193.866 196.785 193.866 195.626C193.866 194.453 194.138 193.419 194.68 192.524C195.223 191.615 195.964 190.903 196.902 190.39C197.841 189.877 198.912 189.62 200.114 189.62C201.332 189.62 202.41 189.877 203.348 190.39C204.302 190.903 205.042 191.607 205.57 192.502C206.113 193.397 206.384 194.438 206.384 195.626C206.384 196.785 206.113 197.819 205.57 198.728C205.042 199.637 204.302 200.356 203.348 200.884C202.41 201.397 201.332 201.654 200.114 201.654ZM200.114 199.3C200.789 199.3 201.39 199.153 201.918 198.86C202.446 198.567 202.857 198.141 203.15 197.584C203.458 197.027 203.612 196.374 203.612 195.626C203.612 194.863 203.458 194.211 203.15 193.668C202.857 193.111 202.446 192.685 201.918 192.392C201.39 192.099 200.796 191.952 200.136 191.952C199.462 191.952 198.86 192.099 198.332 192.392C197.819 192.685 197.408 193.111 197.1 193.668C196.792 194.211 196.638 194.863 196.638 195.626C196.638 196.374 196.792 197.027 197.1 197.584C197.408 198.141 197.819 198.567 198.332 198.86C198.86 199.153 199.454 199.3 200.114 199.3ZM209.014 201.5V189.752H211.632V192.986L211.324 192.04C211.676 191.248 212.226 190.647 212.974 190.236C213.737 189.825 214.683 189.62 215.812 189.62V192.238C215.695 192.209 215.585 192.194 215.482 192.194C215.379 192.179 215.277 192.172 215.174 192.172C214.133 192.172 213.304 192.48 212.688 193.096C212.072 193.697 211.764 194.599 211.764 195.802V201.5H209.014ZM231.57 201.5V199.124L231.416 198.618V194.46C231.416 193.653 231.174 193.03 230.69 192.59C230.206 192.135 229.473 191.908 228.49 191.908C227.83 191.908 227.178 192.011 226.532 192.216C225.902 192.421 225.366 192.707 224.926 193.074L223.848 191.072C224.479 190.588 225.227 190.229 226.092 189.994C226.972 189.745 227.882 189.62 228.82 189.62C230.522 189.62 231.834 190.031 232.758 190.852C233.697 191.659 234.166 192.913 234.166 194.614V201.5H231.57ZM227.874 201.654C226.994 201.654 226.224 201.507 225.564 201.214C224.904 200.906 224.391 200.488 224.024 199.96C223.672 199.417 223.496 198.809 223.496 198.134C223.496 197.474 223.65 196.88 223.958 196.352C224.281 195.824 224.802 195.406 225.52 195.098C226.239 194.79 227.192 194.636 228.38 194.636H231.79V196.462H228.578C227.64 196.462 227.009 196.616 226.686 196.924C226.364 197.217 226.202 197.584 226.202 198.024C226.202 198.523 226.4 198.919 226.796 199.212C227.192 199.505 227.742 199.652 228.446 199.652C229.121 199.652 229.722 199.498 230.25 199.19C230.793 198.882 231.182 198.427 231.416 197.826L231.878 199.476C231.614 200.165 231.138 200.701 230.448 201.082C229.774 201.463 228.916 201.654 227.874 201.654ZM242.689 201.654C241.56 201.654 240.54 201.405 239.631 200.906C238.736 200.407 238.032 199.711 237.519 198.816C237.006 197.907 236.749 196.843 236.749 195.626C236.749 194.409 237.006 193.353 237.519 192.458C238.032 191.563 238.736 190.867 239.631 190.368C240.54 189.869 241.56 189.62 242.689 189.62C243.701 189.62 244.588 189.84 245.351 190.28C246.128 190.705 246.737 191.358 247.177 192.238C247.632 193.118 247.859 194.247 247.859 195.626C247.859 196.99 247.624 198.119 247.155 199.014C246.7 199.894 246.084 200.554 245.307 200.994C244.53 201.434 243.657 201.654 242.689 201.654ZM242.997 199.3C243.657 199.3 244.251 199.153 244.779 198.86C245.307 198.567 245.725 198.141 246.033 197.584C246.341 197.027 246.495 196.374 246.495 195.626C246.495 194.863 246.341 194.211 246.033 193.668C245.725 193.111 245.307 192.685 244.779 192.392C244.251 192.099 243.657 191.952 242.997 191.952C242.337 191.952 241.743 192.099 241.215 192.392C240.702 192.685 240.291 193.111 239.983 193.668C239.675 194.211 239.521 194.863 239.521 195.626C239.521 196.374 239.675 197.027 239.983 197.584C240.291 198.141 240.702 198.567 241.215 198.86C241.743 199.153 242.337 199.3 242.997 199.3ZM246.451 205.768V198.772L246.671 195.648L246.583 192.524V189.752H249.201V205.768H246.451ZM257.771 201.654C256.774 201.654 255.894 201.471 255.131 201.104C254.368 200.723 253.774 200.151 253.349 199.388C252.924 198.611 252.711 197.635 252.711 196.462V189.752H255.461V196.088C255.461 197.144 255.696 197.936 256.165 198.464C256.649 198.977 257.331 199.234 258.211 199.234C258.856 199.234 259.414 199.102 259.883 198.838C260.367 198.574 260.741 198.178 261.005 197.65C261.284 197.122 261.423 196.469 261.423 195.692V189.752H264.173V201.5H261.555V198.332L262.017 199.3C261.621 200.063 261.042 200.649 260.279 201.06C259.516 201.456 258.68 201.654 257.771 201.654ZM267.774 201.5V189.752H270.524V201.5H267.774ZM269.16 187.816C268.646 187.816 268.221 187.655 267.884 187.332C267.561 187.009 267.4 186.621 267.4 186.166C267.4 185.697 267.561 185.308 267.884 185C268.221 184.677 268.646 184.516 269.16 184.516C269.673 184.516 270.091 184.67 270.414 184.978C270.751 185.271 270.92 185.645 270.92 186.1C270.92 186.584 270.758 186.995 270.436 187.332C270.113 187.655 269.688 187.816 269.16 187.816ZM287.451 201.5V199.124L287.297 198.618V194.46C287.297 193.653 287.055 193.03 286.571 192.59C286.087 192.135 285.354 191.908 284.371 191.908C283.711 191.908 283.059 192.011 282.413 192.216C281.783 192.421 281.247 192.707 280.807 193.074L279.729 191.072C280.36 190.588 281.108 190.229 281.973 189.994C282.853 189.745 283.763 189.62 284.701 189.62C286.403 189.62 287.715 190.031 288.639 190.852C289.578 191.659 290.047 192.913 290.047 194.614V201.5H287.451ZM283.755 201.654C282.875 201.654 282.105 201.507 281.445 201.214C280.785 200.906 280.272 200.488 279.905 199.96C279.553 199.417 279.377 198.809 279.377 198.134C279.377 197.474 279.531 196.88 279.839 196.352C280.162 195.824 280.683 195.406 281.401 195.098C282.12 194.79 283.073 194.636 284.261 194.636H287.671V196.462H284.459C283.521 196.462 282.89 196.616 282.567 196.924C282.245 197.217 282.083 197.584 282.083 198.024C282.083 198.523 282.281 198.919 282.677 199.212C283.073 199.505 283.623 199.652 284.327 199.652C285.002 199.652 285.603 199.498 286.131 199.19C286.674 198.882 287.063 198.427 287.297 197.826L287.759 199.476C287.495 200.165 287.019 200.701 286.329 201.082C285.655 201.463 284.797 201.654 283.755 201.654ZM293.576 201.5V189.752H296.326V201.5H293.576ZM294.962 187.816C294.449 187.816 294.024 187.655 293.686 187.332C293.364 187.009 293.202 186.621 293.202 186.166C293.202 185.697 293.364 185.308 293.686 185C294.024 184.677 294.449 184.516 294.962 184.516C295.476 184.516 295.894 184.67 296.216 184.978C296.554 185.271 296.722 185.645 296.722 186.1C296.722 186.584 296.561 186.995 296.238 187.332C295.916 187.655 295.49 187.816 294.962 187.816ZM306.602 189.62C307.541 189.62 308.377 189.803 309.11 190.17C309.858 190.537 310.445 191.101 310.87 191.864C311.295 192.612 311.508 193.58 311.508 194.768V201.5H308.758V195.12C308.758 194.079 308.509 193.301 308.01 192.788C307.526 192.275 306.844 192.018 305.964 192.018C305.319 192.018 304.747 192.15 304.248 192.414C303.749 192.678 303.361 193.074 303.082 193.602C302.818 194.115 302.686 194.768 302.686 195.56V201.5H299.936V189.752H302.554V192.92L302.092 191.952C302.503 191.204 303.097 190.632 303.874 190.236C304.666 189.825 305.575 189.62 306.602 189.62ZM319.99 201.654C318.861 201.654 317.841 201.405 316.932 200.906C316.037 200.393 315.333 199.689 314.82 198.794C314.307 197.899 314.05 196.843 314.05 195.626C314.05 194.409 314.307 193.353 314.82 192.458C315.333 191.563 316.037 190.867 316.932 190.368C317.841 189.869 318.861 189.62 319.99 189.62C320.973 189.62 321.853 189.84 322.63 190.28C323.407 190.705 324.023 191.358 324.478 192.238C324.933 193.118 325.16 194.247 325.16 195.626C325.16 196.99 324.94 198.119 324.5 199.014C324.06 199.894 323.451 200.554 322.674 200.994C321.897 201.434 321.002 201.654 319.99 201.654ZM320.32 199.3C320.98 199.3 321.567 199.153 322.08 198.86C322.608 198.567 323.026 198.141 323.334 197.584C323.657 197.027 323.818 196.374 323.818 195.626C323.818 194.863 323.657 194.211 323.334 193.668C323.026 193.111 322.608 192.685 322.08 192.392C321.567 192.099 320.98 191.952 320.32 191.952C319.66 191.952 319.066 192.099 318.538 192.392C318.025 192.685 317.607 193.111 317.284 193.668C316.976 194.211 316.822 194.863 316.822 195.626C316.822 196.374 316.976 197.027 317.284 197.584C317.607 198.141 318.025 198.567 318.538 198.86C319.066 199.153 319.66 199.3 320.32 199.3ZM323.884 201.5V198.728L323.994 195.604L323.774 192.48V185.176H326.502V201.5H323.884ZM337.359 201.5V199.124L337.205 198.618V194.46C337.205 193.653 336.963 193.03 336.479 192.59C335.995 192.135 335.262 191.908 334.279 191.908C333.619 191.908 332.967 192.011 332.321 192.216C331.691 192.421 331.155 192.707 330.715 193.074L329.637 191.072C330.268 190.588 331.016 190.229 331.881 189.994C332.761 189.745 333.671 189.62 334.609 189.62C336.311 189.62 337.623 190.031 338.547 190.852C339.486 191.659 339.955 192.913 339.955 194.614V201.5H337.359ZM333.663 201.654C332.783 201.654 332.013 201.507 331.353 201.214C330.693 200.906 330.18 200.488 329.813 199.96C329.461 199.417 329.285 198.809 329.285 198.134C329.285 197.474 329.439 196.88 329.747 196.352C330.07 195.824 330.591 195.406 331.309 195.098C332.028 194.79 332.981 194.636 334.169 194.636H337.579V196.462H334.367C333.429 196.462 332.798 196.616 332.475 196.924C332.153 197.217 331.991 197.584 331.991 198.024C331.991 198.523 332.189 198.919 332.585 199.212C332.981 199.505 333.531 199.652 334.235 199.652C334.91 199.652 335.511 199.498 336.039 199.19C336.582 198.882 336.971 198.427 337.205 197.826L337.667 199.476C337.403 200.165 336.927 200.701 336.237 201.082C335.563 201.463 334.705 201.654 333.663 201.654ZM344.365 201.654C343.866 201.654 343.441 201.485 343.089 201.148C342.737 200.796 342.561 200.356 342.561 199.828C342.561 199.271 342.737 198.831 343.089 198.508C343.441 198.171 343.866 198.002 344.365 198.002C344.863 198.002 345.289 198.171 345.641 198.508C345.993 198.831 346.169 199.271 346.169 199.828C346.169 200.356 345.993 200.796 345.641 201.148C345.289 201.485 344.863 201.654 344.365 201.654ZM349.736 201.654C349.237 201.654 348.812 201.485 348.46 201.148C348.108 200.796 347.932 200.356 347.932 199.828C347.932 199.271 348.108 198.831 348.46 198.508C348.812 198.171 349.237 198.002 349.736 198.002C350.234 198.002 350.66 198.171 351.012 198.508C351.364 198.831 351.54 199.271 351.54 199.828C351.54 200.356 351.364 200.796 351.012 201.148C350.66 201.485 350.234 201.654 349.736 201.654ZM355.107 201.654C354.608 201.654 354.183 201.485 353.831 201.148C353.479 200.796 353.303 200.356 353.303 199.828C353.303 199.271 353.479 198.831 353.831 198.508C354.183 198.171 354.608 198.002 355.107 198.002C355.606 198.002 356.031 198.171 356.383 198.508C356.735 198.831 356.911 199.271 356.911 199.828C356.911 200.356 356.735 200.796 356.383 201.148C356.031 201.485 355.606 201.654 355.107 201.654Z" fill="black"/>
</svg>
