<svg width="20" height="20" viewBox="0 0 20 20" fill="none" xmlns="http://www.w3.org/2000/svg">
<g clip-path="url(#clip0_31385_758)">
<path d="M9.17188 1.66602C13.3119 1.66602 16.6719 5.02602 16.6719 9.16602C16.6719 13.306 13.3119 16.666 9.17188 16.666C5.03188 16.666 1.67188 13.306 1.67188 9.16602C1.67188 5.02602 5.03188 1.66602 9.17188 1.66602ZM9.17188 14.9993C12.3944 14.9993 15.0052 12.3885 15.0052 9.16602C15.0052 5.94268 12.3944 3.33268 9.17188 3.33268C5.94854 3.33268 3.33854 5.94268 3.33854 9.16602C3.33854 12.3885 5.94854 14.9993 9.17188 14.9993ZM16.2427 15.0585L18.6002 17.4152L17.421 18.5943L15.0644 16.2368L16.2427 15.0585Z" fill="black"/>
</g>
<defs>
<clipPath id="clip0_31385_758">
<rect width="20" height="20" fill="white"/>
</clipPath>
</defs>
</svg>
